# xmcd
#
# Track frame offsets: 
#        150
#        20892
#        39489
#        58084
#        74778
#        93386
#        107024
#        125149
#        145085
#        165098
#        185071
#        206445
#        226296
#        243304
#        259307
#        273672
#        290655
#        307513
#
# Disc length: 4337 seconds
#
# Revision: 1
# Processed by: cddbd v1.5.2PL0 Copyright (c) Steve Scherf et al.
# Submitted via: ExactAudioCopyFreeDBPlugin 1.0
#
DISCID=0f10ef12
DTITLE=Chris Brown - F.A.M.E.
DYEAR=2011
DGENRE=Hip-Hop
TTITLE0=Deuces Feat. Tyga and Kevin McCall
TTITLE1=Up To You
TTITLE2=No BS Feat. Kevin McCall
TTITLE3=Look At Me Now Feat. Lil Wayne and Busta Rhymes
TTITLE4=She Ain't You
TTITLE5=Say It With Me
TTITLE6=Yeah 3X
TTITLE7=Next To You Feat. Justin Bieber
TTITLE8=All Back
TTITLE9=Wet The Bed Feat. Ludacris
TTITLE10=Oh My Love
TTITLE11=Should've Kissed You
TTITLE12=Beautiful People Feat. Benny Benassi
TTITLE13=Bomb Feat. Wiz Khalifa
TTITLE14=Love The Girls Feat. Game
TTITLE15=Paper, Rock, Scissors Feat. Timbaland and Big Sean
TTITLE16=Beg For It
TTITLE17=Champion Feat. Chipmunk
EXTD=YEAR: 2011
EXTT0=
EXTT1=
EXTT2=
EXTT3=
EXTT4=
EXTT5=
EXTT6=
EXTT7=
EXTT8=
EXTT9=
EXTT10=
EXTT11=
EXTT12=
EXTT13=
EXTT14=
EXTT15=
EXTT16=
EXTT17=
PLAYORDER=
